<svg width="68" height="19" viewBox="0 0 68 19" fill="none" xmlns="http://www.w3.org/2000/svg">
<path d="M5.464 14V5.6H7.504V14H5.464ZM6.352 10.832V9.128H11.332V10.832H6.352ZM6.412 7.4V5.6H11.824V7.4H6.412ZM18.3825 14.12C17.6785 14.12 17.0385 14.012 16.4625 13.796C15.8945 13.58 15.3945 13.276 14.9625 12.884C14.5385 12.484 14.2105 12.02 13.9785 11.492C13.7465 10.964 13.6305 10.388 13.6305 9.764C13.6305 9.14 13.7465 8.564 13.9785 8.036C14.2105 7.508 14.5385 7.048 14.9625 6.656C15.3945 6.256 15.8945 5.948 16.4625 5.732C17.0385 5.516 17.6745 5.408 18.3705 5.408C19.0585 5.408 19.6905 5.516 20.2665 5.732C20.8425 5.948 21.3425 6.256 21.7665 6.656C22.1905 7.048 22.5185 7.508 22.7505 8.036C22.9825 8.564 23.0985 9.14 23.0985 9.764C23.0985 10.38 22.9825 10.956 22.7505 11.492C22.5185 12.02 22.1905 12.484 21.7665 12.884C21.3425 13.276 20.8425 13.58 20.2665 13.796C19.6905 14.012 19.0625 14.12 18.3825 14.12ZM18.3705 12.2C18.7545 12.2 19.1065 12.14 19.4265 12.02C19.7545 11.9 20.0385 11.732 20.2785 11.516C20.5185 11.292 20.7025 11.032 20.8305 10.736C20.9585 10.44 21.0225 10.116 21.0225 9.764C21.0225 9.412 20.9585 9.088 20.8305 8.792C20.7025 8.496 20.5185 8.24 20.2785 8.024C20.0385 7.8 19.7545 7.628 19.4265 7.508C19.1065 7.388 18.7545 7.328 18.3705 7.328C17.9865 7.328 17.6305 7.388 17.3025 7.508C16.9825 7.628 16.6985 7.8 16.4505 8.024C16.2105 8.248 16.0265 8.508 15.8985 8.804C15.7785 9.1 15.7185 9.42 15.7185 9.764C15.7185 10.116 15.7785 10.44 15.8985 10.736C16.0265 11.032 16.2105 11.292 16.4505 11.516C16.6985 11.732 16.9825 11.9 17.3025 12.02C17.6305 12.14 17.9865 12.2 18.3705 12.2ZM29.6676 14.12C28.9636 14.12 28.3236 14.012 27.7476 13.796C27.1796 13.58 26.6796 13.276 26.2476 12.884C25.8236 12.484 25.4956 12.02 25.2636 11.492C25.0316 10.964 24.9156 10.388 24.9156 9.764C24.9156 9.14 25.0316 8.564 25.2636 8.036C25.4956 7.508 25.8236 7.048 26.2476 6.656C26.6796 6.256 27.1796 5.948 27.7476 5.732C28.3236 5.516 28.9596 5.408 29.6556 5.408C30.3436 5.408 30.9756 5.516 31.5516 5.732C32.1276 5.948 32.6276 6.256 33.0516 6.656C33.4756 7.048 33.8036 7.508 34.0356 8.036C34.2676 8.564 34.3836 9.14 34.3836 9.764C34.3836 10.38 34.2676 10.956 34.0356 11.492C33.8036 12.02 33.4756 12.484 33.0516 12.884C32.6276 13.276 32.1276 13.58 31.5516 13.796C30.9756 14.012 30.3476 14.12 29.6676 14.12ZM29.6556 12.2C30.0396 12.2 30.3916 12.14 30.7116 12.02C31.0396 11.9 31.3236 11.732 31.5636 11.516C31.8036 11.292 31.9876 11.032 32.1156 10.736C32.2436 10.44 32.3076 10.116 32.3076 9.764C32.3076 9.412 32.2436 9.088 32.1156 8.792C31.9876 8.496 31.8036 8.24 31.5636 8.024C31.3236 7.8 31.0396 7.628 30.7116 7.508C30.3916 7.388 30.0396 7.328 29.6556 7.328C29.2716 7.328 28.9156 7.388 28.5876 7.508C28.2676 7.628 27.9836 7.8 27.7356 8.024C27.4956 8.248 27.3116 8.508 27.1836 8.804C27.0636 9.1 27.0036 9.42 27.0036 9.764C27.0036 10.116 27.0636 10.44 27.1836 10.736C27.3116 11.032 27.4956 11.292 27.7356 11.516C27.9836 11.732 28.2676 11.9 28.5876 12.02C28.9156 12.14 29.2716 12.2 29.6556 12.2ZM38.4655 14V7.4H35.6335V5.6H43.3975V7.4H40.5055V14H38.4655ZM45.5538 14V5.6H52.0818V7.34H47.5338V12.26H52.2018V14H45.5538ZM46.5618 10.556V8.9H51.5418V10.556H46.5618ZM60.2485 14L57.3565 10.22L53.6845 5.6H56.2165L59.0245 9.284L62.7925 14H60.2485ZM53.6245 14L57.1525 9.428L58.7605 10.376L56.0605 14H53.6245ZM59.2525 10.1L57.6565 9.188L60.2245 5.6H62.6605L59.2525 10.1Z" fill="black"/>
</svg>
